<svg width="1200" height="400" viewBox="0 0 1200 400" fill="none" xmlns="http://www.w3.org/2000/svg">
  <rect width="1200" height="400" fill="#fafafa"/>
  <rect x="0.5" y="0.5" width="1199" height="399" stroke="#e4e4e7"/>

  <text x="96" y="112" font-family="'Geist Mono', ui-monospace, 'SF Mono', Menlo, monospace" font-size="15" fill="#a1a1aa">rubik.osada.vc</text>

  <text x="93" y="178" font-family="'Instrument Sans', 'Helvetica Neue', Helvetica, Arial, sans-serif" font-weight="600" font-size="54" letter-spacing="-1.5" fill="#18181b">learn to solve</text>
  <text x="93" y="238" font-family="'Instrument Sans', 'Helvetica Neue', Helvetica, Arial, sans-serif" font-weight="600" font-size="54" letter-spacing="-1.5" fill="#18181b">the cube,</text>
  <text x="93" y="298" font-family="'Instrument Sans', 'Helvetica Neue', Helvetica, Arial, sans-serif" font-weight="600" font-size="54" letter-spacing="-1.5" fill="#18181b">interactively.</text>
  <ellipse cx="930" cy="361.20000000000005" rx="156.4" ry="28.52" fill="#18181b" opacity="0.07"/>
  <polygon points="930.00,76.00 1049.51,145.00 1049.51,283.00 930.00,352.00 810.49,283.00 810.49,145.00" fill="#232326" stroke="#232326" stroke-width="6" stroke-linejoin="round"/>
  <polygon points="930.00,80.50 965.34,99.00 930.00,117.50 894.66,99.00" fill="#f6f5f0" stroke="#f6f5f0" stroke-width="5" stroke-linejoin="round"/>
  <polygon points="890.16,103.50 925.50,122.00 890.16,140.50 854.83,122.00" fill="#f6f5f0" stroke="#f6f5f0" stroke-width="5" stroke-linejoin="round"/>
  <polygon points="850.33,126.50 885.66,145.00 850.33,163.50 814.99,145.00" fill="#f6f5f0" stroke="#f6f5f0" stroke-width="5" stroke-linejoin="round"/>
  <polygon points="969.84,103.50 1005.17,122.00 969.84,140.50 934.50,122.00" fill="#f6f5f0" stroke="#f6f5f0" stroke-width="5" stroke-linejoin="round"/>
  <polygon points="930.00,126.50 965.34,145.00 930.00,163.50 894.66,145.00" fill="#f6f5f0" stroke="#f6f5f0" stroke-width="5" stroke-linejoin="round"/>
  <polygon points="890.16,149.50 925.50,168.00 890.16,186.50 854.83,168.00" fill="#f6f5f0" stroke="#f6f5f0" stroke-width="5" stroke-linejoin="round"/>
  <polygon points="1009.67,126.50 1045.01,145.00 1009.67,163.50 974.34,145.00" fill="#f6f5f0" stroke="#f6f5f0" stroke-width="5" stroke-linejoin="round"/>
  <polygon points="969.84,149.50 1005.17,168.00 969.84,186.50 934.50,168.00" fill="#f6f5f0" stroke="#f6f5f0" stroke-width="5" stroke-linejoin="round"/>
  <polygon points="930.00,172.50 965.34,191.00 930.00,209.50 894.66,191.00" fill="#f6f5f0" stroke="#f6f5f0" stroke-width="5" stroke-linejoin="round"/>
  <polygon points="1045.61,280.75 1011.92,302.10 1013.57,262.25 1047.26,240.90" fill="#aa392b" stroke="#aa392b" stroke-width="5" stroke-linejoin="round"/>
  <polygon points="1045.61,234.75 1011.92,256.10 1013.57,216.25 1047.26,194.90" fill="#aa392b" stroke="#aa392b" stroke-width="5" stroke-linejoin="round"/>
  <polygon points="1045.61,188.75 1011.92,210.10 1013.57,170.25 1047.26,148.90" fill="#aa392b" stroke="#aa392b" stroke-width="5" stroke-linejoin="round"/>
  <polygon points="1005.77,303.75 972.09,325.10 973.73,285.25 1007.42,263.90" fill="#aa392b" stroke="#aa392b" stroke-width="5" stroke-linejoin="round"/>
  <polygon points="1005.77,257.75 972.09,279.10 973.73,239.25 1007.42,217.90" fill="#aa392b" stroke="#aa392b" stroke-width="5" stroke-linejoin="round"/>
  <polygon points="1005.77,211.75 972.09,233.10 973.73,193.25 1007.42,171.90" fill="#aa392b" stroke="#aa392b" stroke-width="5" stroke-linejoin="round"/>
  <polygon points="965.94,326.75 932.25,348.10 933.90,308.25 967.59,286.90" fill="#aa392b" stroke="#aa392b" stroke-width="5" stroke-linejoin="round"/>
  <polygon points="965.94,280.75 932.25,302.10 933.90,262.25 967.59,240.90" fill="#aa392b" stroke="#aa392b" stroke-width="5" stroke-linejoin="round"/>
  <polygon points="965.94,234.75 932.25,256.10 933.90,216.25 967.59,194.90" fill="#aa392b" stroke="#aa392b" stroke-width="5" stroke-linejoin="round"/>
  <polygon points="814.39,280.75 848.08,302.10 846.43,262.25 812.74,240.90" fill="#306e3f" stroke="#306e3f" stroke-width="5" stroke-linejoin="round"/>
  <polygon points="814.39,234.75 848.08,256.10 846.43,216.25 812.74,194.90" fill="#306e3f" stroke="#306e3f" stroke-width="5" stroke-linejoin="round"/>
  <polygon points="814.39,188.75 848.08,210.10 846.43,170.25 812.74,148.90" fill="#306e3f" stroke="#306e3f" stroke-width="5" stroke-linejoin="round"/>
  <polygon points="854.23,303.75 887.91,325.10 886.27,285.25 852.58,263.90" fill="#306e3f" stroke="#306e3f" stroke-width="5" stroke-linejoin="round"/>
  <polygon points="854.23,257.75 887.91,279.10 886.27,239.25 852.58,217.90" fill="#306e3f" stroke="#306e3f" stroke-width="5" stroke-linejoin="round"/>
  <polygon points="854.23,211.75 887.91,233.10 886.27,193.25 852.58,171.90" fill="#306e3f" stroke="#306e3f" stroke-width="5" stroke-linejoin="round"/>
  <polygon points="894.06,326.75 927.75,348.10 926.10,308.25 892.41,286.90" fill="#306e3f" stroke="#306e3f" stroke-width="5" stroke-linejoin="round"/>
  <polygon points="894.06,280.75 927.75,302.10 926.10,262.25 892.41,240.90" fill="#306e3f" stroke="#306e3f" stroke-width="5" stroke-linejoin="round"/>
  <polygon points="894.06,234.75 927.75,256.10 926.10,216.25 892.41,194.90" fill="#306e3f" stroke="#306e3f" stroke-width="5" stroke-linejoin="round"/>
</svg>
