<svg width="100" height="100" viewBox="0 0 100 100" fill="none" xmlns="http://www.w3.org/2000/svg">
  <polygon points="50.00,1.50 92.00,25.75 92.00,74.25 50.00,98.50 8.00,74.25 8.00,25.75" fill="#232326" stroke="#232326" stroke-width="5" stroke-linejoin="round"/>
  <polygon points="50.00,3.12 61.20,9.59 50.00,16.05 38.80,9.59" fill="#f6f5f0" stroke="#f6f5f0" stroke-width="3" stroke-linejoin="round"/>
  <polygon points="36.00,11.20 47.20,17.67 36.00,24.13 24.80,17.67" fill="#f6f5f0" stroke="#f6f5f0" stroke-width="3" stroke-linejoin="round"/>
  <polygon points="22.00,19.28 33.20,25.75 22.00,32.22 10.80,25.75" fill="#f6f5f0" stroke="#f6f5f0" stroke-width="3" stroke-linejoin="round"/>
  <polygon points="64.00,11.20 75.20,17.67 64.00,24.13 52.80,17.67" fill="#f6f5f0" stroke="#f6f5f0" stroke-width="3" stroke-linejoin="round"/>
  <polygon points="50.00,19.28 61.20,25.75 50.00,32.22 38.80,25.75" fill="#f6f5f0" stroke="#f6f5f0" stroke-width="3" stroke-linejoin="round"/>
  <polygon points="36.00,27.37 47.20,33.83 36.00,40.30 24.80,33.83" fill="#f6f5f0" stroke="#f6f5f0" stroke-width="3" stroke-linejoin="round"/>
  <polygon points="78.00,19.28 89.20,25.75 78.00,32.22 66.80,25.75" fill="#f6f5f0" stroke="#f6f5f0" stroke-width="3" stroke-linejoin="round"/>
  <polygon points="64.00,27.37 75.20,33.83 64.00,40.30 52.80,33.83" fill="#f6f5f0" stroke="#f6f5f0" stroke-width="3" stroke-linejoin="round"/>
  <polygon points="50.00,35.45 61.20,41.92 50.00,48.38 38.80,41.92" fill="#f6f5f0" stroke="#f6f5f0" stroke-width="3" stroke-linejoin="round"/>
  <polygon points="51.40,50.81 62.60,44.34 62.60,57.27 51.40,63.74" fill="#aa392b" stroke="#aa392b" stroke-width="3" stroke-linejoin="round"/>
  <polygon points="51.40,66.97 62.60,60.51 62.60,73.44 51.40,79.91" fill="#aa392b" stroke="#aa392b" stroke-width="3" stroke-linejoin="round"/>
  <polygon points="51.40,83.14 62.60,76.67 62.60,89.61 51.40,96.07" fill="#aa392b" stroke="#aa392b" stroke-width="3" stroke-linejoin="round"/>
  <polygon points="65.40,42.73 76.60,36.26 76.60,49.19 65.40,55.66" fill="#aa392b" stroke="#aa392b" stroke-width="3" stroke-linejoin="round"/>
  <polygon points="65.40,58.89 76.60,52.42 76.60,65.36 65.40,71.82" fill="#aa392b" stroke="#aa392b" stroke-width="3" stroke-linejoin="round"/>
  <polygon points="65.40,75.06 76.60,68.59 76.60,81.52 65.40,87.99" fill="#aa392b" stroke="#aa392b" stroke-width="3" stroke-linejoin="round"/>
  <polygon points="79.40,34.64 90.60,28.18 90.60,41.11 79.40,47.58" fill="#aa392b" stroke="#aa392b" stroke-width="3" stroke-linejoin="round"/>
  <polygon points="79.40,50.81 90.60,44.34 90.60,57.27 79.40,63.74" fill="#aa392b" stroke="#aa392b" stroke-width="3" stroke-linejoin="round"/>
  <polygon points="79.40,66.97 90.60,60.51 90.60,73.44 79.40,79.91" fill="#aa392b" stroke="#aa392b" stroke-width="3" stroke-linejoin="round"/>
  <polygon points="48.60,50.81 37.40,44.34 37.40,57.27 48.60,63.74" fill="#306e3f" stroke="#306e3f" stroke-width="3" stroke-linejoin="round"/>
  <polygon points="48.60,66.97 37.40,60.51 37.40,73.44 48.60,79.91" fill="#306e3f" stroke="#306e3f" stroke-width="3" stroke-linejoin="round"/>
  <polygon points="48.60,83.14 37.40,76.67 37.40,89.61 48.60,96.07" fill="#306e3f" stroke="#306e3f" stroke-width="3" stroke-linejoin="round"/>
  <polygon points="34.60,42.73 23.40,36.26 23.40,49.19 34.60,55.66" fill="#306e3f" stroke="#306e3f" stroke-width="3" stroke-linejoin="round"/>
  <polygon points="34.60,58.89 23.40,52.42 23.40,65.36 34.60,71.82" fill="#306e3f" stroke="#306e3f" stroke-width="3" stroke-linejoin="round"/>
  <polygon points="34.60,75.06 23.40,68.59 23.40,81.52 34.60,87.99" fill="#306e3f" stroke="#306e3f" stroke-width="3" stroke-linejoin="round"/>
  <polygon points="20.60,34.64 9.40,28.18 9.40,41.11 20.60,47.58" fill="#306e3f" stroke="#306e3f" stroke-width="3" stroke-linejoin="round"/>
  <polygon points="20.60,50.81 9.40,44.34 9.40,57.27 20.60,63.74" fill="#306e3f" stroke="#306e3f" stroke-width="3" stroke-linejoin="round"/>
  <polygon points="20.60,66.97 9.40,60.51 9.40,73.44 20.60,79.91" fill="#306e3f" stroke="#306e3f" stroke-width="3" stroke-linejoin="round"/>
</svg>
